<?xml version="1.0" standalone="no"?>
<!DOCTYPE svg PUBLIC "-//W3C//DTD SVG 20010904//EN"
 "http://www.w3.org/TR/2001/REC-SVG-20010904/DTD/svg10.dtd">
<svg version="1.0" xmlns="http://www.w3.org/2000/svg"
 width="512.000000pt" height="512.000000pt" viewBox="0 0 512.000000 512.000000"
 preserveAspectRatio="xMidYMid meet">
<metadata>
Created by potrace 1.14, written by Peter Selinger 2001-2017
</metadata>
<g transform="translate(0.000000,512.000000) scale(0.100000,-0.100000)"
fill="#000000" stroke="none">
<path d="M430 4573 c-165 -42 -296 -188 -317 -353 -4 -36 -7 -801 -7 -1700 l1
-1635 23 -60 c57 -149 162 -245 306 -278 49 -12 409 -14 2144 -12 1871 1 2090
3 2132 17 140 47 243 153 284 293 16 56 17 168 17 1725 -1 1638 -1 1666 -21
1721 -47 132 -138 224 -272 276 -42 16 -183 17 -2141 18 -1734 1 -2105 -1
-2149 -12z m4246 -221 c52 -27 100 -81 113 -129 7 -23 11 -169 11 -370 l0
-333 -2240 0 -2240 0 0 342 c1 370 3 383 58 441 37 39 78 60 132 66 25 4 963
6 2085 5 l2040 -1 41 -21z m121 -2242 c3 -1191 3 -1194 -18 -1237 -30 -61 -91
-111 -148 -119 -25 -4 -965 -7 -2088 -7 -1907 0 -2045 1 -2087 17 -54 21 -111
81 -125 133 -7 26 -11 419 -11 1224 l0 1185 2238 0 2237 -1 2 -1195z"/>
<path d="M1554 2974 c-54 -26 -62 -53 -60 -204 3 -204 12 -213 228 -208 l140
3 29 33 29 32 0 136 c0 145 -9 182 -53 206 -34 19 -275 20 -313 2z"/>
<path d="M2384 2955 c-37 -35 -36 -28 -37 -206 -1 -110 12 -153 54 -174 35
-19 275 -21 313 -4 48 22 61 70 59 217 -2 189 -13 199 -222 199 l-133 0 -34
-32z"/>
<path d="M3263 2975 c-55 -23 -65 -58 -61 -216 3 -136 3 -139 31 -166 27 -27
31 -28 154 -31 164 -5 187 0 217 44 23 34 24 43 22 172 -2 150 -9 172 -61 196
-41 18 -259 19 -302 1z"/>
<path d="M4140 2983 c-73 -20 -88 -54 -88 -203 -1 -206 13 -220 220 -220 l138
0 32 29 33 29 3 140 c5 214 -10 230 -208 229 -63 0 -122 -2 -130 -4z"/>
<path d="M674 2206 l-34 -34 0 -136 c0 -213 12 -225 225 -222 189 2 203 16
203 206 1 207 -13 220 -221 220 l-139 0 -34 -34z"/>
<path d="M1544 2221 c-19 -11 -36 -33 -42 -53 -12 -36 -9 -259 3 -295 15 -46
50 -57 189 -59 215 -4 229 10 224 227 -3 136 -3 139 -31 166 -27 28 -29 28
-170 31 -127 2 -145 1 -173 -17z"/>
<path d="M2393 2219 c-39 -25 -46 -53 -46 -174 1 -171 0 -165 37 -200 l34 -32
139 1 c205 2 214 11 216 203 3 210 -10 223 -215 223 -117 0 -137 -3 -165 -21z"/>
<path d="M3234 2206 l-34 -34 0 -136 c0 -210 8 -219 205 -222 209 -4 224 10
221 216 -3 202 -11 210 -222 210 l-136 0 -34 -34z"/>
<path d="M4117 2233 c-9 -2 -28 -20 -41 -40 -23 -33 -24 -42 -22 -171 3 -201
14 -211 221 -208 199 3 208 14 203 227 -3 136 -3 139 -31 166 -27 28 -29 28
-170 30 -78 1 -150 -1 -160 -4z"/>
<path d="M745 1492 c-88 -8 -105 -43 -105 -207 0 -207 12 -219 215 -218 201 1
214 14 211 218 -2 191 -15 206 -183 208 -60 1 -121 1 -138 -1z"/>
<path d="M1591 1489 c-34 -4 -51 -14 -71 -38 -26 -31 -27 -34 -27 -173 l1
-141 32 -33 c34 -37 28 -36 206 -36 172 -1 188 18 188 212 0 148 -9 179 -61
200 -34 14 -191 19 -268 9z"/>
<path d="M2435 1489 c-26 -4 -47 -16 -62 -35 -25 -32 -25 -32 -25 -195 0 -180
13 -193 201 -193 152 0 173 5 202 45 19 27 22 43 22 157 1 153 -4 174 -44 203
-27 19 -45 22 -143 23 -62 0 -130 -2 -151 -5z"/>
</g>
</svg>
